HIERARCHY
ROOT Hips
{
    OFFSET 0.000000 0.000000 0.000000
    CHANNELS 6 Xposition Yposition Zposition Zrotation Xrotation Yrotation
    JOINT Spine
    {
        OFFSET -0.000000 7.236184 0.000000
        CHANNELS 3 Zrotation Xrotation Yrotation
        JOINT Spine1
        {
            OFFSET -0.000000 20.420147 0.000000
            CHANNELS 3 Zrotation Xrotation Yrotation
            JOINT Neck
            {
                OFFSET -0.000000 20.336288 1.848754
                CHANNELS 3 Zrotation Xrotation Yrotation
                JOINT Head
                {
                    OFFSET -0.000000 12.354461 -1.764923
                    CHANNELS 3 Zrotation Xrotation Yrotation
                    End Site
                    {
                        OFFSET -0.000000 22.061537 0.000000
                    }
                }
            }
            JOINT LeftShoulder
            {
                OFFSET 3.573296 18.396038 -0.314103
                CHANNELS 3 Zrotation Xrotation Yrotation
                JOINT LeftArm
                {
                    OFFSET 10.880760 0.000000 0.000000
                    CHANNELS 3 Zrotation Xrotation Yrotation
                    JOINT LeftForeArm
                    {
                        OFFSET 27.185530 0.000000 0.000000
                        CHANNELS 3 Zrotation Xrotation Yrotation
                        JOINT LeftHand
                        {
                            OFFSET 27.825975 0.000000 0.000000
                            CHANNELS 3 Zrotation Xrotation Yrotation
                            End Site
                            {
                                OFFSET 13.236923 0.000000 0.000000
                            }
                        }
                    }
                }
            }
            JOINT RightShoulder
            {
                OFFSET -3.474926 18.396038 -0.314103
                CHANNELS 3 Zrotation Xrotation Yrotation
                JOINT RightArm
                {
                    OFFSET -10.880760 0.000000 0.000000
                    CHANNELS 3 Zrotation Xrotation Yrotation
                    JOINT RightForeArm
                    {
                        OFFSET -27.185530 0.000000 0.000000
                        CHANNELS 3 Zrotation Xrotation Yrotation
                        JOINT RightHand
                        {
                            OFFSET -27.825975 0.000000 0.000000
                            CHANNELS 3 Zrotation Xrotation Yrotation
                            End Site
                            {
                                OFFSET -13.236923 0.000000 0.000000
                            }
                        }
                    }
                }
            }
        }
    }
    JOINT LeftUpLeg
    {
        OFFSET 8.824615 0.000000 0.000000
        CHANNELS 3 Zrotation Xrotation Yrotation
        JOINT LeftLeg
        {
            OFFSET -0.000000 -35.111282 0.000000
            CHANNELS 3 Zrotation Xrotation Yrotation
            JOINT LeftFoot
            {
                OFFSET -0.000000 -42.324711 0.000000
                CHANNELS 3 Zrotation Xrotation Yrotation
                JOINT LeftToeBase
                {
                    OFFSET -0.000000 -5.735999 13.236923
                    CHANNELS 3 Zrotation Xrotation Yrotation
                    End Site
                    {
                        OFFSET -0.000000 0.000000 3.529846
                    }
                }
            }
        }
    }
    JOINT RightUpLeg
    {
        OFFSET -8.824615 0.000000 0.000000
        CHANNELS 3 Zrotation Xrotation Yrotation
        JOINT RightLeg
        {
            OFFSET -0.000000 -35.111282 0.000000
            CHANNELS 3 Zrotation Xrotation Yrotation
            JOINT RightFoot
            {
                OFFSET -0.000000 -42.324711 0.000000
                CHANNELS 3 Zrotation Xrotation Yrotation
                JOINT RightToeBase
                {
                    OFFSET -0.000000 -5.735999 13.236923
                    CHANNELS 3 Zrotation Xrotation Yrotation
                    End Site
                    {
                        OFFSET -0.000000 0.000000 3.529846
                    }
                }
            }
        }
    }
}
MOTION
Frames:    4
Frame Time:    0.008333
-5.945024    81.505058    108.861900    3.095277    -3.252307    -158.948914    -3.027462    -13.125592    -0.071361    1.991447    16.635702    -0.014103    4.281933    23.893621    -11.034516    15.608831    12.885342    -10.737014    4.932265    12.276141    -12.943614    -31.144882    34.873402    -68.892624    2.458132    -31.890167    -126.592453    36.830719    -23.743820    12.947680    4.496512    17.232077    5.280126    51.955204    9.889874    48.068958    -14.402955    -43.507030    126.932594    -15.849954    -18.059244    -2.909541    9.520726    -19.739836    0.627746    0.728789    31.010061    10.031905    -10.505227    -10.951123    -13.743194    -0.208116    -1.034484    0.231123    -8.079210    -5.135384    -5.225821    10.056110    23.428799    -12.071389    0.000000    0.000000    0.000000    0.000000    0.000000    0.000000    
-5.897799    81.492195    108.873177    3.180920    -3.250694    -158.070618    -3.046484    -13.113028    0.018068    1.899586    16.660702    0.090232    4.183311    23.757044    -11.030516    15.610588    13.129087    -10.780211    4.872840    12.285188    -12.852440    -30.859783    34.977062    -69.174416    2.453313    -31.836334    -126.618202    36.900810    -23.696163    12.908457    4.589529    17.267918    5.276927    52.221771    8.825658    47.793377    -16.162960    -43.935146    125.116272    -14.528056    -16.345089    -2.214291    9.415178    -20.089478    0.331473    0.918113    31.096315    9.456684    -10.507893    -10.877769    -13.805985    -0.199934    -1.006972    0.222025    -7.991313    -4.990379    -5.562373    10.177357    23.389912    -12.471037    0.000000    0.000000    0.000000    0.000000    0.000000    0.000000    
-5.850143    81.480423    108.886024    3.269497    -3.256869    -157.182999    -3.070305    -13.092497    0.108200    1.803575    16.655956    0.196675    4.081258    23.618006    -11.029765    15.648770    13.364451    -10.824873    4.816389    12.303638    -12.765389    -30.580008    35.060665    -69.456085    2.453102    -31.781620    -126.626678    36.913273    -23.653332    12.850961    4.670549    17.265905    5.263957    52.452610    7.664666    47.503189    -18.109489    -44.341980    123.057014    -13.113131    -14.535675    -1.580759    9.303143    -20.447031    0.028156    1.102958    31.172239    8.884459    -10.511862    -10.798708    -13.871595    -0.191957    -0.976420    0.213155    -7.902173    -4.853982    -5.898346    10.301229    23.344767    -12.878838    0.000000    0.000000    0.000000    0.000000    0.000000    0.000000    
-5.802353    81.469795    108.900581    3.361056    -3.270874    -156.292343    -3.097727    -13.063586    0.198935    1.701721    16.620781    0.305120    3.978960    23.477352    -11.032765    15.721613    13.588202    -10.871037    4.764460    12.333532    -12.684255    -30.305607    35.123493    -69.736305    2.452329    -31.724857    -126.621208    36.866062    -23.621925    12.778383    4.735340    17.220272    5.240946    52.628746    6.428788    47.202042    -20.214933    -44.704365    120.764709    -11.622823    -12.684828    -1.042441    9.185500    -20.810469    -0.278526    1.282861    31.237572    8.317331    -10.517081    -10.714662    -13.939408    -0.183956    -0.943850    0.204258    -7.812539    -4.727816    -6.232420    10.426569    23.293905    -13.291033    0.000000    0.000000    0.000000    0.000000    0.000000    0.000000    
